<svg xmlns="http://www.w3.org/2000/svg" width="207" height="57" viewBox="0 0 207 57" fill="none"><g opacity="0.8"><path d="M174.43 25.0916V16.95C174.43 16.5938 174.5 16.2412 174.636 15.9121C174.773 15.583 174.972 15.2841 175.224 15.0323C175.476 14.7804 175.775 14.5807 176.104 14.4445C176.433 14.3082 176.786 14.2382 177.142 14.2383H179.543C180.261 14.2398 180.948 14.5258 181.455 15.0336C181.962 15.5414 182.246 16.2294 182.246 16.9468V18.6797C182.246 19.3991 181.961 20.089 181.452 20.5977C180.943 21.1064 180.253 21.3922 179.534 21.3922H176.138" stroke="#1A1A1A" stroke-width="0.592125" stroke-linecap="round" stroke-linejoin="round"></path><path d="M182.922 14.2344H183.962C184.258 14.2344 184.541 14.3517 184.75 14.5605C184.958 14.7693 185.076 15.0524 185.076 15.3477V21.4307" stroke="#1A1A1A" stroke-width="0.592125" stroke-linecap="round" stroke-linejoin="round"></path><path d="M184.849 13.2944L184.377 12.8214C184.349 12.7935 184.327 12.7604 184.312 12.7239C184.297 12.6874 184.289 12.6483 184.289 12.6089C184.289 12.5694 184.297 12.5303 184.312 12.4938C184.327 12.4574 184.349 12.4242 184.377 12.3964L184.849 11.9241C184.877 11.8962 184.91 11.874 184.947 11.8589C184.983 11.8437 185.023 11.8359 185.062 11.8359C185.101 11.8359 185.141 11.8437 185.177 11.8589C185.213 11.874 185.247 11.8962 185.274 11.9241L185.748 12.3964C185.775 12.4242 185.798 12.4574 185.813 12.4938C185.828 12.5303 185.836 12.5694 185.836 12.6089C185.836 12.6483 185.828 12.6874 185.813 12.7239C185.798 12.7604 185.775 12.7935 185.748 12.8214L185.274 13.2944C185.247 13.3223 185.213 13.3445 185.177 13.3597C185.141 13.3748 185.101 13.3826 185.062 13.3826C185.023 13.3826 184.983 13.3748 184.947 13.3597C184.91 13.3445 184.877 13.3223 184.849 13.2944" fill="#1A1A1A"></path><path d="M187.078 14.2305H188.112C188.644 14.2306 189.154 14.4419 189.531 14.818L191.949 17.236C192.024 17.3106 192.112 17.3698 192.209 17.4103C192.307 17.4507 192.411 17.4715 192.516 17.4715C192.622 17.4715 192.726 17.4507 192.823 17.4103C192.921 17.3698 193.009 17.3106 193.083 17.236L195.496 14.8268C195.682 14.6405 195.903 14.4927 196.147 14.3919C196.39 14.2911 196.651 14.2392 196.914 14.2393H197.755" stroke="#1A1A1A" stroke-width="0.592125" stroke-linecap="round" stroke-linejoin="round"></path><path d="M187.078 21.377H188.112C188.644 21.3769 189.154 21.1655 189.531 20.7895L191.949 18.3723C192.024 18.2976 192.112 18.2384 192.209 18.1979C192.307 18.1575 192.411 18.1367 192.516 18.1367C192.622 18.1367 192.726 18.1575 192.823 18.1979C192.921 18.2384 193.009 18.2976 193.083 18.3723L195.496 20.7807C195.682 20.9669 195.903 21.1147 196.147 21.2155C196.39 21.3163 196.651 21.3682 196.914 21.3681H197.755" stroke="#1A1A1A" stroke-width="0.592125" stroke-linecap="round" stroke-linejoin="round"></path><path d="M168.269 22.9189C168.013 22.9197 167.76 22.8698 167.524 22.7721C167.289 22.6744 167.074 22.5309 166.894 22.3498L164.91 20.3704C164.84 20.3032 164.747 20.2656 164.65 20.2656C164.552 20.2656 164.459 20.3032 164.389 20.3704L162.398 22.361C162.218 22.5421 162.003 22.6856 161.768 22.7833C161.532 22.881 161.279 22.9309 161.023 22.9301H160.633L163.145 25.4433C163.522 25.82 164.033 26.0316 164.566 26.0316C165.099 26.0316 165.61 25.82 165.987 25.4433L168.507 22.9229L168.269 22.9189Z" fill="#1A1A1A"></path><path d="M161.022 15.9022C161.277 15.9016 161.53 15.9516 161.766 16.0492C162.002 16.1469 162.216 16.2903 162.396 16.4713L164.387 18.4626C164.457 18.5316 164.55 18.5703 164.648 18.5703C164.746 18.5703 164.839 18.5316 164.909 18.4626L166.893 16.4785C167.073 16.2975 167.287 16.1541 167.523 16.0564C167.759 15.9588 168.012 15.9088 168.267 15.9094H168.507L165.987 13.3897C165.801 13.203 165.579 13.0549 165.336 12.9539C165.092 12.8528 164.83 12.8008 164.566 12.8008C164.302 12.8008 164.041 12.8528 163.797 12.9539C163.553 13.0549 163.332 13.203 163.145 13.3897L160.633 15.9022H161.022Z" fill="#1A1A1A"></path><path d="M170.588 17.9952L169.067 16.4744C169.033 16.4882 168.996 16.4955 168.959 16.4961H168.267C167.907 16.4976 167.561 16.6414 167.306 16.8963L165.319 18.8764C165.231 18.9649 165.126 19.035 165.01 19.0828C164.895 19.1306 164.771 19.1552 164.646 19.155C164.393 19.1554 164.151 19.0555 163.972 18.8772L161.981 16.8858C161.726 16.631 161.381 16.4871 161.02 16.4857H160.169C160.134 16.485 160.1 16.478 160.067 16.4648L158.538 17.9936C158.351 18.1802 158.203 18.4017 158.102 18.6455C158.001 18.8894 157.949 19.1507 157.949 19.4147C157.949 19.6786 158.001 19.94 158.102 20.1839C158.203 20.4277 158.351 20.6492 158.538 20.8358L160.067 22.3646C160.1 22.3514 160.134 22.3444 160.169 22.3437H161.02C161.381 22.342 161.726 22.1982 161.981 21.9435L163.972 19.9522C164.154 19.779 164.395 19.6824 164.646 19.6824C164.896 19.6824 165.138 19.779 165.319 19.9522L167.303 21.9363C167.558 22.191 167.903 22.3348 168.264 22.3365H168.956C168.993 22.3369 169.03 22.3446 169.064 22.359L170.585 20.8382C170.962 20.4612 171.173 19.95 171.173 19.4171C171.173 18.8842 170.962 18.373 170.585 17.996" fill="#1A1A1A"></path><path d="M176.5 24.4005C176.374 24.4061 176.249 24.4252 176.127 24.4573V24.9535C176.22 24.9864 176.319 25.0029 176.418 25.0024C176.666 25.0024 176.784 24.9183 176.784 24.699C176.784 24.4933 176.687 24.4005 176.5 24.4005V24.4005ZM176.043 25.3217V24.3412H176.112L176.119 24.3837C176.246 24.3497 176.376 24.3288 176.507 24.3212C176.598 24.315 176.688 24.341 176.762 24.3949C176.802 24.434 176.833 24.4816 176.852 24.5342C176.872 24.5869 176.879 24.6432 176.874 24.699C176.879 24.7613 176.866 24.8237 176.838 24.8795C176.81 24.9352 176.767 24.9821 176.714 25.0152C176.624 25.0594 176.525 25.0814 176.425 25.0792C176.324 25.0786 176.223 25.0632 176.126 25.0336V25.3217H176.043Z" fill="#1A1A1A"></path><path d="M177.497 24.3975C177.248 24.3975 177.137 24.4776 177.137 24.6945C177.137 24.9114 177.247 25.0018 177.497 25.0018C177.746 25.0018 177.855 24.9218 177.855 24.7057C177.855 24.4896 177.746 24.3975 177.497 24.3975V24.3975ZM177.817 25.0018C177.721 25.0611 177.609 25.0891 177.497 25.0819C177.384 25.0886 177.273 25.0607 177.177 25.0018C177.132 24.9662 177.097 24.9199 177.074 24.8672C177.052 24.8145 177.043 24.7571 177.048 24.7001C177.043 24.643 177.052 24.5856 177.075 24.5328C177.097 24.48 177.132 24.4336 177.177 24.3975C177.272 24.3383 177.384 24.3104 177.497 24.3175C177.609 24.3105 177.721 24.3385 177.817 24.3975C177.861 24.4332 177.896 24.4794 177.919 24.5319C177.941 24.5844 177.95 24.6417 177.945 24.6985C177.95 24.7557 177.942 24.8134 177.919 24.8663C177.897 24.9193 177.862 24.9659 177.817 25.0018" fill="#1A1A1A"></path><path d="M178.993 25.0563L178.716 24.4608H178.711L178.438 25.0563H178.366L178.07 24.3359H178.163L178.409 24.9386H178.414L178.682 24.3359H178.762L179.036 24.9386H179.042L179.282 24.3359H179.372L179.076 25.0563H178.993Z" fill="#1A1A1A"></path><path d="M179.903 24.395C179.672 24.395 179.595 24.4974 179.583 24.6455H180.228C180.222 24.4814 180.138 24.395 179.908 24.395H179.903ZM179.908 25.0777C179.802 25.089 179.695 25.0605 179.609 24.9977C179.568 24.9598 179.536 24.913 179.515 24.8609C179.494 24.8088 179.485 24.7527 179.489 24.6967C179.486 24.6387 179.497 24.5806 179.52 24.5273C179.543 24.4739 179.578 24.4267 179.623 24.3894C179.707 24.3372 179.804 24.312 179.903 24.3174C180.004 24.3111 180.104 24.3354 180.19 24.387C180.294 24.4566 180.314 24.5791 180.314 24.7184H179.577C179.577 24.8656 179.628 24.9969 179.907 24.9969C180.032 24.9939 180.156 24.98 180.278 24.9553V25.0305C180.154 25.0565 180.028 25.0715 179.901 25.0753" fill="#1A1A1A"></path><path d="M180.555 25.0568V24.3364H180.624L180.631 24.3788C180.746 24.341 180.866 24.32 180.987 24.3164H180.997V24.3964H180.977C180.862 24.3989 180.748 24.4181 180.639 24.4533V25.0552L180.555 25.0568Z" fill="#1A1A1A"></path><path d="M181.484 24.3965C181.254 24.3965 181.175 24.4989 181.164 24.647H181.81C181.803 24.4829 181.719 24.3965 181.49 24.3965H181.484ZM181.49 25.0792C181.384 25.0903 181.278 25.0618 181.191 24.9992C181.152 24.9608 181.121 24.9142 181.102 24.8625C181.082 24.8109 181.075 24.7556 181.079 24.7006C181.076 24.6425 181.087 24.5845 181.11 24.5312C181.133 24.4778 181.168 24.4306 181.213 24.3933C181.297 24.3411 181.395 24.3159 181.493 24.3213C181.594 24.3151 181.693 24.3394 181.78 24.3909C181.884 24.4605 181.904 24.583 181.904 24.7222H181.167C181.167 24.8695 181.219 25.0008 181.497 25.0008C181.622 24.9978 181.746 24.9838 181.869 24.9592V25.0344C181.744 25.0603 181.617 25.0753 181.49 25.0792" fill="#1A1A1A"></path><path d="M182.811 24.4395C182.718 24.4069 182.62 24.3907 182.521 24.3914C182.272 24.3914 182.154 24.4755 182.154 24.694C182.154 24.9125 182.251 24.9925 182.439 24.9925C182.564 24.9866 182.689 24.9681 182.811 24.9373V24.4395ZM182.827 25.0526L182.82 25.0093C182.693 25.0435 182.563 25.0647 182.432 25.0726C182.34 25.0795 182.25 25.0531 182.177 24.9981C182.137 24.9592 182.105 24.9116 182.086 24.859C182.066 24.8063 182.059 24.7499 182.064 24.694C182.059 24.6319 182.072 24.5697 182.1 24.5143C182.128 24.4588 182.171 24.4121 182.224 24.3794C182.314 24.3341 182.414 24.3118 182.515 24.3146C182.615 24.3158 182.715 24.3311 182.812 24.3602V24.0312H182.896V25.0526H182.827Z" fill="#1A1A1A"></path><path d="M184.132 24.3938C184.006 24.3995 183.881 24.4185 183.759 24.4507V24.9453C183.852 24.9793 183.95 24.9964 184.049 24.9957C184.298 24.9957 184.416 24.9117 184.416 24.6924C184.416 24.4867 184.319 24.3938 184.132 24.3938V24.3938ZM184.346 25.0085C184.257 25.0528 184.158 25.0748 184.057 25.0726C183.949 25.0714 183.84 25.0531 183.737 25.0181V25.0526H183.68V24.0312H183.76V24.3714C183.884 24.3396 184.012 24.3198 184.14 24.3122C184.231 24.3059 184.321 24.332 184.394 24.3858C184.435 24.4249 184.466 24.4725 184.485 24.5252C184.504 24.5778 184.512 24.6341 184.506 24.69C184.511 24.7523 184.499 24.8147 184.471 24.8704C184.442 24.9262 184.399 24.9731 184.346 25.0061" fill="#1A1A1A"></path><path d="M184.611 25.334V25.254C184.651 25.254 184.691 25.2612 184.717 25.2612C184.766 25.2652 184.814 25.2528 184.855 25.2259C184.896 25.1991 184.926 25.1594 184.942 25.1131L184.969 25.0563L184.594 24.3359H184.691L185.011 24.9554H185.016L185.322 24.3359H185.417L185.017 25.1419C184.943 25.2884 184.863 25.3364 184.717 25.3364C184.682 25.338 184.646 25.3372 184.611 25.334Z" fill="#1A1A1A"></path><path d="M186.574 24.6502H186.295V24.9023H186.575C186.767 24.9023 186.84 24.8807 186.84 24.7751C186.84 24.6694 186.74 24.6502 186.574 24.6502V24.6502ZM186.523 24.242H186.295V24.4981H186.524C186.714 24.4981 186.789 24.4757 186.789 24.3685C186.789 24.2612 186.694 24.242 186.523 24.242V24.242ZM186.955 24.992C186.853 25.0568 186.729 25.06 186.503 25.06H186.078V24.0859H186.493C186.688 24.0859 186.807 24.0859 186.907 24.1484C186.94 24.1681 186.967 24.1967 186.984 24.2309C187.002 24.2652 187.01 24.3037 187.007 24.3421C187.009 24.3901 186.995 24.4376 186.967 24.4768C186.939 24.5161 186.899 24.5447 186.853 24.5582V24.5638C186.978 24.5918 187.059 24.6558 187.059 24.7943C187.062 24.8336 187.054 24.873 187.035 24.9079C187.017 24.9429 186.989 24.972 186.955 24.992" fill="#1A1A1A"></path><path d="M187.908 24.7573C187.828 24.7501 187.739 24.7461 187.65 24.7461C187.503 24.7461 187.452 24.7757 187.452 24.8429C187.452 24.9101 187.494 24.939 187.606 24.939C187.708 24.9354 187.809 24.9212 187.908 24.8965V24.7573ZM187.951 25.059L187.945 25.0158C187.818 25.0519 187.687 25.0731 187.555 25.079C187.479 25.0841 187.403 25.0656 187.338 25.0262C187.312 25.0061 187.29 24.9797 187.276 24.9494C187.262 24.9191 187.256 24.8858 187.258 24.8525C187.256 24.8117 187.267 24.7713 187.288 24.7365C187.31 24.7018 187.342 24.6745 187.379 24.658C187.465 24.6258 187.557 24.6122 187.649 24.618C187.724 24.618 187.825 24.622 187.909 24.6276V24.618C187.909 24.5059 187.835 24.4691 187.633 24.4691C187.553 24.4691 187.46 24.4731 187.369 24.4819V24.3363C187.469 24.3283 187.583 24.3227 187.677 24.3227C187.792 24.3125 187.908 24.3355 188.011 24.3891C188.091 24.4475 188.109 24.5284 188.109 24.6356V25.0606L187.951 25.059Z" fill="#1A1A1A"></path><path d="M189.052 25.0532V24.653C189.052 24.5226 188.985 24.4754 188.866 24.4754C188.767 24.4796 188.668 24.4949 188.573 24.521V25.05H188.375V24.3297H188.535L188.542 24.3745C188.667 24.3382 188.796 24.3165 188.926 24.3097C189.014 24.3028 189.102 24.329 189.172 24.3833C189.201 24.4126 189.224 24.4479 189.237 24.4868C189.251 24.5257 189.256 24.5671 189.252 24.6082V25.0476L189.052 25.0532Z" fill="#1A1A1A"></path><path d="M189.812 25.0795C189.717 25.087 189.622 25.06 189.545 25.0035C189.504 24.9648 189.473 24.9173 189.453 24.8646C189.433 24.8119 189.426 24.7554 189.431 24.6994C189.428 24.64 189.439 24.5807 189.465 24.527C189.49 24.4733 189.529 24.4271 189.578 24.3928C189.674 24.339 189.783 24.3142 189.893 24.3216C189.973 24.3216 190.057 24.3272 190.146 24.3352V24.4889C190.074 24.4825 189.986 24.4761 189.917 24.4761C189.727 24.4761 189.637 24.5361 189.637 24.701C189.637 24.8658 189.704 24.9227 189.86 24.9227C189.962 24.9195 190.063 24.9072 190.162 24.8859V25.0339C190.047 25.0603 189.93 25.0756 189.812 25.0795Z" fill="#1A1A1A"></path><path d="M190.756 24.4727C190.566 24.4727 190.482 24.5327 190.482 24.696C190.482 24.8593 190.562 24.9289 190.756 24.9289C190.951 24.9289 191.027 24.8705 191.027 24.7072C191.027 24.5439 190.947 24.4727 190.756 24.4727V24.4727ZM191.1 25.0042C190.996 25.0633 190.876 25.0898 190.756 25.0802C190.636 25.0895 190.516 25.0631 190.41 25.0042C190.363 24.9698 190.326 24.9239 190.303 24.8708C190.279 24.8178 190.269 24.7595 190.275 24.7016C190.269 24.6436 190.279 24.585 190.303 24.5317C190.326 24.4784 190.363 24.4322 190.41 24.3975C190.516 24.3389 190.636 24.3127 190.756 24.3222C190.876 24.3131 190.995 24.3392 191.1 24.3975C191.147 24.432 191.184 24.4781 191.207 24.5311C191.23 24.5841 191.24 24.6423 191.234 24.7C191.24 24.7579 191.23 24.8163 191.207 24.8696C191.183 24.9228 191.147 24.9692 191.1 25.0042" fill="#1A1A1A"></path><path d="M192.389 25.0743C192.264 25.0822 192.141 25.0463 192.039 24.9727C191.923 24.8766 191.887 24.7269 191.887 24.5661C191.883 24.4861 191.899 24.4063 191.934 24.334C191.968 24.2618 192.02 24.1993 192.085 24.1523C192.211 24.0827 192.354 24.0508 192.497 24.0602C192.605 24.0602 192.716 24.0674 192.837 24.077V24.2523C192.733 24.2435 192.605 24.2363 192.506 24.2363C192.228 24.2363 192.111 24.342 192.111 24.5661C192.111 24.7902 192.22 24.8974 192.424 24.8974C192.571 24.8926 192.716 24.8731 192.858 24.839V25.0135C192.704 25.0495 192.547 25.0702 192.389 25.0751" fill="#1A1A1A"></path><path d="M193.454 24.4497C193.288 24.4497 193.224 24.509 193.214 24.6186H193.694C193.689 24.5018 193.621 24.4497 193.454 24.4497ZM193.425 25.0797C193.317 25.0894 193.209 25.0611 193.12 24.9996C193.08 24.9616 193.048 24.9148 193.028 24.8628C193.008 24.8108 193.001 24.755 193.005 24.6995C193.002 24.642 193.013 24.5846 193.036 24.532C193.059 24.4794 193.095 24.4331 193.14 24.3969C193.234 24.3401 193.344 24.3138 193.454 24.3217C193.563 24.315 193.671 24.34 193.766 24.3937C193.881 24.4738 193.89 24.6002 193.892 24.7483H193.209C193.214 24.8579 193.273 24.9284 193.474 24.9284C193.603 24.9256 193.73 24.9132 193.857 24.8916V25.0324C193.714 25.0595 193.57 25.0753 193.425 25.0797Z" fill="#1A1A1A"></path><path d="M194.781 25.0532V24.653C194.781 24.5226 194.715 24.4754 194.595 24.4754C194.496 24.4796 194.398 24.4949 194.302 24.521V25.05H194.102V24.3297H194.266L194.273 24.3745C194.398 24.3382 194.526 24.3164 194.656 24.3097C194.745 24.3028 194.833 24.329 194.903 24.3833C194.932 24.4126 194.954 24.4479 194.968 24.4868C194.982 24.5257 194.987 24.5671 194.983 24.6082V25.0476L194.781 25.0532Z" fill="#1A1A1A"></path><path d="M195.548 25.0768C195.503 25.0811 195.459 25.0739 195.418 25.056C195.377 25.038 195.342 25.0099 195.315 24.9743C195.275 24.909 195.257 24.8329 195.262 24.7566V24.4877H195.117V24.3388H195.262L195.284 24.1211H195.461V24.3388H195.744V24.4877H195.461V24.7182C195.459 24.7647 195.465 24.8113 195.481 24.8551C195.494 24.8783 195.513 24.8972 195.536 24.9091C195.559 24.921 195.586 24.9253 195.612 24.9215C195.66 24.9207 195.708 24.9158 195.755 24.9071V25.0512C195.687 25.0661 195.618 25.0747 195.548 25.0768" fill="#1A1A1A"></path><path d="M195.941 25.0568V24.3364H196.101L196.109 24.3812C196.223 24.3425 196.343 24.3207 196.464 24.3164H196.49V24.4877C196.466 24.4877 196.44 24.4877 196.42 24.4877C196.325 24.488 196.23 24.5004 196.138 24.5245V25.0552L195.941 25.0568Z" fill="#1A1A1A"></path><path d="M197.224 24.7573C197.14 24.7501 197.054 24.7461 196.964 24.7461C196.818 24.7461 196.767 24.7757 196.767 24.8429C196.767 24.9102 196.81 24.939 196.922 24.939C197.024 24.9353 197.125 24.9211 197.224 24.8966V24.7573ZM197.266 25.059L197.258 25.0182C197.131 25.0542 197 25.0754 196.868 25.0814C196.792 25.0864 196.716 25.068 196.651 25.0286C196.624 25.0084 196.603 24.982 196.589 24.9517C196.575 24.9215 196.569 24.8882 196.571 24.8549C196.569 24.8129 196.58 24.7714 196.603 24.7361C196.626 24.7008 196.659 24.6735 196.698 24.658C196.784 24.6265 196.875 24.6134 196.966 24.6196C197.041 24.6196 197.143 24.6236 197.227 24.6292V24.618C197.227 24.506 197.153 24.4691 196.951 24.4691C196.871 24.4691 196.777 24.4731 196.686 24.4819V24.3363C196.788 24.3283 196.901 24.3227 196.995 24.3227C197.11 24.3125 197.226 24.3355 197.329 24.3891C197.409 24.4475 197.427 24.5284 197.427 24.6356V25.0606L197.266 25.059Z" fill="#1A1A1A"></path><path d="M197.68 24.0352H197.881V25.0565H197.68V24.0352Z" fill="#1A1A1A"></path><path fill-rule="evenodd" clip-rule="evenodd" d="M126.761 27.0682C124.881 28.6902 122.443 29.6694 119.778 29.6694C113.832 29.6694 109.012 24.7932 109.012 18.7781C109.012 12.7629 113.832 7.88672 119.778 7.88672C122.443 7.88672 124.881 8.86588 126.761 10.4879C128.641 8.86588 131.079 7.88672 133.744 7.88672C139.69 7.88672 144.51 12.7629 144.51 18.7781C144.51 24.7932 139.69 29.6694 133.744 29.6694C131.079 29.6694 128.641 28.6902 126.761 27.0682Z" fill="#1A1A1A"></path><path fill-rule="evenodd" clip-rule="evenodd" d="M126.762 27.0682C129.077 25.0705 130.545 22.0977 130.545 18.7781C130.545 15.4584 129.077 12.4856 126.762 10.4879C128.642 8.86588 131.08 7.88672 133.745 7.88672C139.691 7.88672 144.511 12.7629 144.511 18.7781C144.511 24.7932 139.691 29.6694 133.745 29.6694C131.08 29.6694 128.642 28.6902 126.762 27.0682Z" fill="#C8C8C8"></path><path fill-rule="evenodd" clip-rule="evenodd" d="M126.756 27.0725C129.071 25.0748 130.54 22.102 130.54 18.7823C130.54 15.4627 129.071 12.4899 126.756 10.4922C124.441 12.4899 122.973 15.4627 122.973 18.7823C122.973 22.102 124.441 25.0748 126.756 27.0725Z" fill="#B7B7B7"></path><path fill-rule="evenodd" clip-rule="evenodd" d="M75.7424 25.6523H72.397L69.8884 16.0817C69.7693 15.6415 69.5165 15.2523 69.1446 15.0688C68.2165 14.6079 67.1938 14.241 66.0781 14.056V13.6875H71.4673C72.2111 13.6875 72.7689 14.241 72.8619 14.8838L74.1635 21.7874L77.5072 13.6875H80.7596L75.7424 25.6523ZM82.6178 25.6523H79.4584L82.06 13.6875H85.2194L82.6178 25.6523ZM89.3085 17.0007C89.4015 16.3563 89.9593 15.9878 90.6101 15.9878C91.6328 15.8953 92.7469 16.0803 93.6766 16.5397L94.2344 13.9637C93.3047 13.5952 92.282 13.4102 91.3539 13.4102C88.2875 13.4102 86.0561 15.0675 86.0561 17.3676C86.0561 19.1174 87.6367 20.0362 88.7523 20.5897C89.9593 21.1416 90.4242 21.51 90.3312 22.0619C90.3312 22.8898 89.4015 23.2583 88.4734 23.2583C87.3577 23.2583 86.2421 22.9823 85.221 22.5213L84.6632 25.099C85.7788 25.5584 86.9858 25.7434 88.1015 25.7434C91.5399 25.8343 93.6766 24.1786 93.6766 21.6935C93.6766 18.5639 89.3085 18.3805 89.3085 17.0007V17.0007ZM104.735 25.6523L102.226 13.6875H99.5313C98.9735 13.6875 98.4157 14.056 98.2297 14.6079L93.5843 25.6523H96.8368L97.4859 23.9041H101.482L101.854 25.6523H104.735ZM99.9943 16.9078L100.922 21.4171H98.3207L99.9943 16.9078Z" fill="#1A1A1A"></path><g clip-path="url(#clip0_1891_416)"><path d="M7.88281 7.89062H8.32119V19.5305H7.88281V7.89062ZM8.75957 7.89062H9.19795V19.5305H8.75957V7.89062ZM11.3918 7.89062H11.8302V19.5305H11.3918V7.89062ZM19.9249 7.89062H20.3632V19.5305H19.9249V7.89062ZM22.7776 7.89062H23.2159V19.5305H22.7776V7.89062ZM25.5438 7.89062H25.9822V19.5305H25.5438V7.89062ZM26.2567 7.89062H26.6951V19.5305H26.2573L26.2567 7.89062ZM26.9706 7.89062H27.409V19.5305H26.9706V7.89062ZM27.7729 7.89062H28.2113V19.5305H27.7731L27.7729 7.89062ZM28.5751 7.89062H29.0135V19.5305H28.5751V7.89062ZM30.8053 7.89062H31.2437V19.5305H30.8047L30.8053 7.89062ZM36.3348 7.89062H36.7732V19.5305H36.3348V7.89062ZM42.1026 7.89062H42.5409V19.5305H42.1025L42.1026 7.89062ZM43.6803 7.89062H44.1187V19.5305H43.6803V7.89062ZM44.8209 7.89062H45.2593V19.5305H44.8209V7.89062ZM45.5226 7.89062H45.961V19.5305H45.5226V7.89062ZM14.2868 7.89062H14.7252V19.5305H14.2868V7.89062ZM9.90017 7.89062H10.6896V19.5305H9.90017V7.89062ZM15.1096 7.89062H15.8988V19.5305H15.1096V7.89062ZM18.7674 7.89062H19.5567V19.5305H18.7674V7.89062ZM20.6401 7.89062H21.4294V19.5305H20.6401V7.89062ZM23.5832 7.89062H24.3724V19.5305H23.5832V7.89062ZM31.9738 7.89062H33.2015V19.5305H31.9738V7.89062ZM33.5774 7.89062H34.5417V19.5305H33.5764L33.5774 7.89062ZM35.2695 7.89062H36.0588V19.5305H35.2695V7.89062ZM37.5071 7.89062H38.8231V19.5305H37.5071V7.89062ZM40.0842 7.89062H41.4004V19.5305H40.0842V7.89062ZM12.269 7.89062H13.8476V19.5305H12.269V7.89062ZM16.3605 7.89062H17.5881V19.5305H16.3605V7.89062Z" fill="#1A1A1A"></path><path d="M8.44531 29.8645V23.2022H10.9453C11.3631 23.186 11.7798 23.2548 12.1703 23.4042C12.4696 23.5321 12.7219 23.7496 12.8925 24.0268C13.0615 24.2891 13.1523 24.5942 13.154 24.9063C13.1541 25.1909 13.0737 25.4697 12.9223 25.7106C12.7517 25.976 12.5089 26.1871 12.2224 26.3192C12.5901 26.4137 12.9168 26.6258 13.1528 26.9232C13.3713 27.2136 13.4856 27.569 13.4776 27.9322C13.4802 28.2337 13.4126 28.5317 13.2803 28.8027C13.1684 29.0456 13.0002 29.2583 12.7898 29.4234C12.5708 29.5806 12.3228 29.6928 12.0601 29.7536C11.708 29.8343 11.3472 29.8718 10.986 29.8652L8.44531 29.8645ZM9.32778 26.0019H10.7685C11.0499 26.0129 11.3315 25.9869 11.6061 25.9246C11.8071 25.8736 11.9853 25.757 12.1125 25.5932C12.2309 25.4229 12.2907 25.2188 12.2828 25.0115C12.2869 24.8058 12.2317 24.6032 12.1238 24.428C12.0208 24.2617 11.8607 24.1386 11.6735 24.0818C11.3413 24.0054 11.0004 23.974 10.6599 23.9886H9.32808L9.32778 26.0019ZM9.32778 29.0785H10.9863C11.1869 29.0838 11.3877 29.0732 11.5866 29.047C11.7666 29.0178 11.9394 28.9546 12.0957 28.8607C12.2386 28.7685 12.3545 28.6401 12.4317 28.4885C12.5219 28.3164 12.5674 28.1244 12.5639 27.9301C12.5701 27.6983 12.5034 27.4704 12.3732 27.2785C12.2446 27.0943 12.0582 26.9584 11.8436 26.8923C11.5262 26.8065 11.1977 26.7688 10.8691 26.7806H9.32778V29.0785ZM14.766 26.6204C14.7101 25.671 15.03 24.7377 15.6565 24.0222C15.9517 23.7121 16.3094 23.4682 16.7058 23.3064C17.1023 23.1447 17.5285 23.0689 17.9564 23.0839C18.5408 23.076 19.1161 23.2286 19.6196 23.5251C20.1091 23.8145 20.5019 24.2423 20.7487 24.7546C21.0146 25.3126 21.1474 25.9246 21.1368 26.5426C21.1479 27.1709 21.0082 27.7927 20.7291 28.3557C20.4758 28.8681 20.0713 29.2904 19.5704 29.5657C19.0751 29.8387 18.5182 29.9803 17.9527 29.977C17.3609 29.9868 16.7784 29.8297 16.2718 29.5238C15.7843 29.2283 15.3939 28.7967 15.1484 28.2822C14.8954 27.7648 14.7646 27.1963 14.766 26.6204V26.6204ZM15.6754 26.6343C15.6375 27.3275 15.8712 28.0083 16.3269 28.5321C16.5324 28.7571 16.7839 28.9355 17.0642 29.0551C17.3446 29.1747 17.6474 29.2328 17.9521 29.2254C18.2586 29.2332 18.5632 29.1746 18.845 29.0536C19.1267 28.9326 19.379 28.7522 19.5845 28.5246C20.0442 27.9687 20.2743 27.2583 20.2277 26.5384C20.2399 26.0511 20.1475 25.5667 19.9568 25.1181C19.7888 24.7312 19.5087 24.4034 19.1527 24.1771C18.797 23.9535 18.3842 23.8375 17.9641 23.843C17.6664 23.8385 17.3707 23.893 17.0942 24.0034C16.8177 24.1137 16.5658 24.2778 16.353 24.4861C16.1013 24.7799 15.9115 25.1216 15.795 25.4905C15.6786 25.8595 15.6379 26.2482 15.6754 26.6333V26.6343ZM22.5825 29.8649V23.2022H23.4639V29.0779H26.7448V29.8645L22.5825 29.8649ZM28.1576 29.8649V23.2022H32.9751V23.9886H29.039V26.0297H32.7248V26.8114H29.039V29.0787H33.1297V29.8652L28.1576 29.8649ZM36.3873 29.8649V23.9886H34.1912V23.2022H39.4722V23.9886H37.2682V29.8645L36.3873 29.8649ZM40.2852 26.6204C40.23 25.6708 40.5507 24.7377 41.1779 24.0226C41.4731 23.7126 41.8307 23.4686 42.2272 23.3069C42.6236 23.1451 43.0498 23.0693 43.4777 23.0843C44.062 23.0764 44.6373 23.229 45.1409 23.5256C45.6304 23.8149 46.0232 24.2427 46.2699 24.755C46.536 25.313 46.6688 25.9251 46.658 26.5431C46.6689 27.1714 46.5288 27.7932 46.2495 28.3562C45.9953 28.8694 45.5895 29.2922 45.087 29.567C44.5917 29.84 44.0348 29.9817 43.4693 29.9784C42.8771 29.9881 42.2942 29.8307 41.7875 29.5242C41.301 29.2284 40.9115 28.7968 40.6668 28.2826C40.414 27.7651 40.2834 27.1964 40.2852 26.6204V26.6204ZM41.1945 26.6343C41.1567 27.3275 41.3904 28.0083 41.846 28.5321C42.0516 28.7571 42.303 28.9355 42.5834 29.0551C42.8637 29.1747 43.1665 29.2328 43.4712 29.2254C43.7786 29.2342 44.0843 29.1761 44.3671 29.0552C44.6499 28.9344 44.9031 28.7537 45.1093 28.5255C45.5691 27.9696 45.7991 27.2591 45.7524 26.5393C45.762 26.0513 45.6667 25.567 45.4731 25.119C45.305 24.7321 45.025 24.4044 44.669 24.178C44.3135 23.9546 43.901 23.8386 43.4811 23.8439C43.1834 23.8394 42.8877 23.8939 42.6112 24.0043C42.3346 24.1146 42.0827 24.2787 41.8699 24.487C41.6187 24.7809 41.4294 25.1224 41.3133 25.4912C41.1973 25.86 41.1569 26.2484 41.1945 26.6331V26.6343Z" fill="#1A1A1A"></path></g><path d="M140.478 50.5938C140.244 50.5955 140.018 50.6753 139.836 50.8205C139.653 50.9657 139.524 51.1678 139.47 51.3947C139.416 51.6215 139.439 51.8601 139.536 52.0722C139.633 52.2844 139.798 52.4579 140.005 52.5652V53.8044H140.872V52.6042C141.096 52.5125 141.281 52.346 141.395 52.1332C141.51 51.9203 141.547 51.6743 141.501 51.437C141.454 51.1997 141.327 50.986 141.14 50.8322C140.954 50.6784 140.72 50.5941 140.478 50.5938V50.5938Z" fill="#484848"></path><path d="M143.904 48.1721V46.3176C143.923 45.3782 143.569 44.4696 142.919 43.7908C142.269 43.1119 141.377 42.718 140.438 42.6953C139.499 42.718 138.607 43.1119 137.957 43.7908C137.307 44.4696 136.953 45.3782 136.972 46.3176V48.1721H135.672V55.538C135.672 55.7678 135.763 55.9882 135.926 56.1507C136.088 56.3132 136.309 56.4045 136.538 56.4045H144.338C144.567 56.4045 144.788 56.3132 144.95 56.1507C145.113 55.9882 145.204 55.7678 145.204 55.538V48.1721H143.904ZM137.838 46.3176C137.82 45.608 138.083 44.9198 138.57 44.4035C139.057 43.8871 139.729 43.5845 140.438 43.5619C141.148 43.5845 141.819 43.8871 142.306 44.4035C142.793 44.9198 143.056 45.608 143.038 46.3176V48.1721H137.838V46.3176ZM136.538 55.538V49.0386H144.338V55.538H136.538Z" fill="#484848"></path><path d="M40.8293 49.0344C41.4525 49.0344 41.9835 48.8122 42.3358 48.4004L41.8806 47.9669C41.6042 48.2703 41.2628 48.4166 40.8673 48.4166C40.0815 48.4166 39.5125 47.8639 39.5125 47.0836C39.5125 46.3033 40.0815 45.7506 40.8673 45.7506C41.2628 45.7506 41.6042 45.8969 41.8806 46.1949L42.3358 45.7668C41.9835 45.355 41.4525 45.1328 40.8347 45.1328C39.6697 45.1328 38.8027 45.9511 38.8027 47.0836C38.8027 48.2161 39.6697 49.0344 40.8293 49.0344Z" fill="#484848"></path><path d="M44.1404 49.0181C45.0399 49.0181 45.6848 48.4004 45.6848 47.5334C45.6848 46.6663 45.0399 46.054 44.1404 46.054C43.2517 46.054 42.6015 46.6663 42.6015 47.5334C42.6015 48.4004 43.2517 49.0181 44.1404 49.0181ZM44.1404 48.4383C43.6527 48.4383 43.2842 48.0861 43.2842 47.5334C43.2842 46.9806 43.6527 46.6284 44.1404 46.6284C44.6335 46.6284 45.002 46.9806 45.002 47.5334C45.002 48.0861 44.6335 48.4383 44.1404 48.4383Z" fill="#484848"></path><path d="M49.9848 46.054C49.5242 46.054 49.134 46.2383 48.901 46.5363C48.7005 46.2112 48.3483 46.054 47.9256 46.054C47.5301 46.054 47.1941 46.1949 46.9773 46.455V46.0865H46.3325V48.9802H47.0099V47.5117C47.0099 46.9373 47.3133 46.6447 47.7631 46.6447C48.1749 46.6447 48.4133 46.8939 48.4133 47.4087V48.9802H49.0907V47.5117C49.0907 46.9373 49.3996 46.6447 49.8439 46.6447C50.2557 46.6447 50.4942 46.8939 50.4942 47.4087V48.9802H51.1715V47.322C51.1715 46.4496 50.6838 46.054 49.9848 46.054Z" fill="#484848"></path><path d="M53.6411 46.054C53.2455 46.054 52.9095 46.1895 52.682 46.4658V46.0865H52.0371V50.0315H52.7145V48.628C52.9475 48.8935 53.2726 49.0181 53.6411 49.0181C54.4864 49.0181 55.1096 48.4329 55.1096 47.5334C55.1096 46.6393 54.4864 46.054 53.6411 46.054ZM53.5652 48.4383C53.0775 48.4383 52.7036 48.0861 52.7036 47.5334C52.7036 46.9806 53.0775 46.6284 53.5652 46.6284C54.0529 46.6284 54.4214 46.9806 54.4214 47.5334C54.4214 48.0861 54.0529 48.4383 53.5652 48.4383Z" fill="#484848"></path><path d="M56.3968 46.5092V46.0865H55.752V48.9802H56.4293V47.5767C56.4293 46.9861 56.7545 46.6826 57.2693 46.6826C57.318 46.6826 57.3668 46.688 57.4264 46.6989V46.054C56.9441 46.054 56.5919 46.2057 56.3968 46.5092Z" fill="#484848"></path><path d="M59.0906 46.054C58.6246 46.054 58.1748 46.1732 57.8659 46.4117L58.1315 46.9048C58.3482 46.726 58.6842 46.6176 59.0093 46.6176C59.4916 46.6176 59.73 46.8506 59.73 47.2462V47.2895H58.9822C58.1044 47.2895 57.7792 47.6688 57.7792 48.1511C57.7792 48.6551 58.1965 49.0181 58.8576 49.0181C59.2911 49.0181 59.6054 48.8772 59.7679 48.628V48.9802H60.4074V47.2841C60.4074 46.4496 59.9251 46.054 59.0906 46.054ZM58.9985 48.525C58.6517 48.525 58.4457 48.3679 58.4457 48.124C58.4457 47.9127 58.5704 47.7393 59.031 47.7393H59.73V48.0752C59.6162 48.3733 59.329 48.525 58.9985 48.525Z" fill="#484848"></path><path d="M40.2495 54.1753C41.2899 54.1753 41.783 53.6551 41.783 53.0482C41.783 51.6556 39.5342 52.1812 39.5342 51.3738C39.5342 51.0866 39.7726 50.859 40.3579 50.859C40.6884 50.859 41.0623 50.9565 41.4037 51.157L41.6259 50.6097C41.2953 50.393 40.8185 50.2738 40.3633 50.2738C39.3229 50.2738 38.8352 50.794 38.8352 51.4063C38.8352 52.8152 41.0894 52.2787 41.0894 53.097C41.0894 53.3788 40.8402 53.5901 40.2495 53.5901C39.7835 53.5901 39.3012 53.4167 38.9978 53.1729L38.7539 53.7202C39.0682 53.9911 39.6589 54.1753 40.2495 54.1753Z" fill="#484848"></path><path d="M45.1368 52.6906C45.1368 51.7856 44.5191 51.195 43.6737 51.195C42.8121 51.195 42.1781 51.8127 42.1781 52.6743C42.1781 53.5359 42.8067 54.1591 43.7767 54.1591C44.2752 54.1591 44.6816 53.9965 44.9417 53.6876L44.5787 53.2704C44.3727 53.4817 44.1181 53.5847 43.7929 53.5847C43.289 53.5847 42.9367 53.3137 42.8555 52.8911H45.126C45.1314 52.826 45.1368 52.7448 45.1368 52.6906ZM43.6737 51.7369C44.1181 51.7369 44.4378 52.0241 44.492 52.4413H42.85C42.9151 52.0186 43.2348 51.7369 43.6737 51.7369Z" fill="#484848"></path><path d="M48.0146 51.2275V51.6122C47.7762 51.325 47.4185 51.195 47.0121 51.195C46.183 51.195 45.549 51.7477 45.549 52.5876C45.549 53.4275 46.183 53.9911 47.0121 53.9911C47.4023 53.9911 47.7436 53.8665 47.9821 53.6064V53.7581C47.9821 54.3433 47.7003 54.6359 47.0609 54.6359C46.6599 54.6359 46.248 54.5005 45.9934 54.2891L45.6899 54.7985C46.0205 55.0695 46.5569 55.2103 47.0988 55.2103C48.1121 55.2103 48.6594 54.7335 48.6594 53.6822V51.2275H48.0146ZM47.1151 53.4167C46.6003 53.4167 46.2318 53.0807 46.2318 52.5876C46.2318 52.0999 46.6003 51.7694 47.1151 51.7694C47.6244 51.7694 47.9929 52.0999 47.9929 52.5876C47.9929 53.0807 47.6244 53.4167 47.1151 53.4167Z" fill="#484848"></path><path d="M51.6741 51.2275V52.6906C51.6741 53.2704 51.3544 53.563 50.883 53.563C50.4549 53.563 50.2056 53.3137 50.2056 52.7881V51.2275H49.5283V52.8802C49.5283 53.7527 50.0322 54.1591 50.7746 54.1591C51.1485 54.1591 51.4899 54.0182 51.7066 53.7527V54.1212H52.3515V51.2275H51.6741Z" fill="#484848"></path><path d="M53.8832 51.6502V51.2275H53.2384V54.1212H53.9157V52.7177C53.9157 52.127 54.2408 51.8236 54.7556 51.8236C54.8044 51.8236 54.8532 51.829 54.9128 51.8398V51.195C54.4305 51.195 54.0783 51.3467 53.8832 51.6502Z" fill="#484848"></path><path d="M56.577 51.195C56.1109 51.195 55.6612 51.3142 55.3523 51.5526L55.6178 52.0457C55.8346 51.8669 56.1706 51.7585 56.4957 51.7585C56.978 51.7585 57.2164 51.9915 57.2164 52.3871V52.4305H56.4686C55.5907 52.4305 55.2656 52.8098 55.2656 53.2921C55.2656 53.796 55.6829 54.1591 56.344 54.1591C56.7775 54.1591 57.0918 54.0182 57.2543 53.7689V54.1212H57.8937V52.4251C57.8937 51.5906 57.4115 51.195 56.577 51.195ZM56.4848 53.666C56.138 53.666 55.9321 53.5088 55.9321 53.265C55.9321 53.0536 56.0568 52.8802 56.5174 52.8802H57.2164V53.2162C57.1026 53.5142 56.8154 53.666 56.4848 53.666Z" fill="#484848"></path><path d="M95.0894 49.0344C96.1298 49.0344 96.6229 48.5142 96.6229 47.9073C96.6229 46.5147 94.3741 47.0403 94.3741 46.2329C94.3741 45.9457 94.6125 45.7181 95.1977 45.7181C95.5283 45.7181 95.9022 45.8156 96.2436 46.0161L96.4657 45.4688C96.1352 45.2521 95.6583 45.1328 95.2031 45.1328C94.1627 45.1328 93.675 45.6531 93.675 46.2654C93.675 47.6743 95.9293 47.1378 95.9293 47.9561C95.9293 48.2378 95.68 48.4492 95.0894 48.4492C94.6233 48.4492 94.1411 48.2758 93.8376 48.0319L93.5938 48.5792C93.908 48.8502 94.4987 49.0344 95.0894 49.0344Z" fill="#484848"></path><path d="M98.3618 46.054C97.8958 46.054 97.446 46.1733 97.1372 46.4117L97.4027 46.9048C97.6194 46.726 97.9554 46.6176 98.2805 46.6176C98.7628 46.6176 99.0013 46.8506 99.0013 47.2462V47.2895H98.2535C97.3756 47.2895 97.0505 47.6689 97.0505 48.1511C97.0505 48.6551 97.4677 49.0182 98.1288 49.0182C98.5623 49.0182 98.8766 48.8773 99.0392 48.628V48.9802H99.6786V47.2841C99.6786 46.4496 99.1963 46.054 98.3618 46.054ZM98.2697 48.525C97.9229 48.525 97.717 48.3679 97.717 48.124C97.717 47.9127 97.8416 47.7393 98.3022 47.7393H99.0013V48.0753C98.8875 48.3733 98.6003 48.525 98.2697 48.525Z" fill="#484848"></path><path d="M102.098 48.3408C101.995 48.4221 101.859 48.46 101.718 48.46C101.458 48.46 101.317 48.3083 101.317 48.0265V46.6501H102.092V46.1082H101.317V45.4471H100.64V46.1082H100.163V46.6501H100.64V48.0428C100.64 48.6822 101.003 49.0182 101.637 49.0182C101.881 49.0182 102.125 48.9531 102.287 48.8231L102.098 48.3408Z" fill="#484848"></path><path d="M103.186 45.6097C103.441 45.6097 103.619 45.4255 103.619 45.187C103.619 44.9649 103.435 44.7969 103.186 44.7969C102.937 44.7969 102.752 44.9757 102.752 45.2033C102.752 45.4309 102.937 45.6097 103.186 45.6097ZM102.845 48.9802H103.522V46.0866H102.845V48.9802Z" fill="#484848"></path><path d="M105.305 49.0182C106.118 49.0182 106.616 48.6659 106.616 48.124C106.616 46.9915 104.828 47.5117 104.828 46.9265C104.828 46.7368 105.023 46.6014 105.435 46.6014C105.711 46.6014 105.988 46.6555 106.264 46.8181L106.524 46.3033C106.264 46.1462 105.825 46.054 105.441 46.054C104.66 46.054 104.167 46.4117 104.167 46.959C104.167 48.1132 105.955 47.593 105.955 48.1457C105.955 48.3462 105.777 48.4654 105.348 48.4654C104.985 48.4654 104.595 48.3462 104.341 48.1782L104.08 48.693C104.341 48.8773 104.823 49.0182 105.305 49.0182Z" fill="#484848"></path><path d="M108.376 45.4688C108.517 45.4688 108.647 45.5176 108.75 45.588L108.939 45.0787C108.787 44.9703 108.56 44.9215 108.327 44.9215C107.655 44.9215 107.292 45.3171 107.292 45.924V46.1082H106.815V46.6501H107.292V48.9802H107.969V46.6501H108.744V46.1082H107.948V45.9348C107.948 45.626 108.094 45.4688 108.376 45.4688Z" fill="#484848"></path><path d="M110.253 46.054C109.787 46.054 109.337 46.1733 109.028 46.4117L109.293 46.9048C109.51 46.726 109.846 46.6176 110.171 46.6176C110.654 46.6176 110.892 46.8506 110.892 47.2462V47.2895H110.144C109.266 47.2895 108.941 47.6689 108.941 48.1511C108.941 48.6551 109.358 49.0182 110.02 49.0182C110.453 49.0182 110.767 48.8773 110.93 48.628V48.9802H111.569V47.2841C111.569 46.4496 111.087 46.054 110.253 46.054ZM110.16 48.525C109.814 48.525 109.608 48.3679 109.608 48.124C109.608 47.9127 109.732 47.7393 110.193 47.7393H110.892V48.0753C110.778 48.3733 110.491 48.525 110.16 48.525Z" fill="#484848"></path><path d="M113.787 48.4383C113.289 48.4383 112.909 48.097 112.909 47.5334C112.909 46.9753 113.289 46.6284 113.787 46.6284C114.075 46.6284 114.335 46.7531 114.508 47.0294L115.028 46.726C114.806 46.2871 114.356 46.054 113.793 46.054C112.877 46.054 112.227 46.6664 112.227 47.5334C112.227 48.2975 112.731 48.8664 113.473 48.9911L113.338 49.495H113.506C113.711 49.495 113.793 49.5709 113.793 49.6738C113.793 49.7931 113.706 49.8689 113.506 49.8689C113.37 49.8689 113.251 49.8418 113.137 49.7822L113.012 50.1019C113.148 50.1778 113.316 50.2157 113.511 50.2157C113.955 50.2157 114.248 50.0152 114.248 49.7009C114.248 49.4679 114.096 49.2837 113.777 49.2457L113.836 49.0182C114.378 49.0073 114.812 48.7635 115.028 48.3408L114.508 48.0373C114.335 48.3137 114.075 48.4383 113.787 48.4383Z" fill="#484848"></path><path d="M116.432 45.3333C116.627 45.3333 116.811 45.691 117.169 45.691C117.516 45.691 117.743 45.4038 117.754 44.9811H117.391C117.38 45.1762 117.277 45.29 117.126 45.29C116.931 45.29 116.746 44.9323 116.389 44.9323C116.042 44.9323 115.814 45.2141 115.803 45.6585H116.167C116.177 45.4526 116.28 45.3333 116.432 45.3333ZM116.719 46.054C116.253 46.054 115.803 46.1733 115.495 46.4117L115.76 46.9048C115.977 46.726 116.313 46.6176 116.638 46.6176C117.12 46.6176 117.359 46.8506 117.359 47.2462V47.2895H116.611C115.733 47.2895 115.408 47.6689 115.408 48.1511C115.408 48.6551 115.825 49.0182 116.486 49.0182C116.92 49.0182 117.234 48.8773 117.397 48.628V48.9802H118.036V47.2841C118.036 46.4496 117.554 46.054 116.719 46.054ZM116.627 48.525C116.28 48.525 116.074 48.3679 116.074 48.124C116.074 47.9127 116.199 47.7393 116.66 47.7393H117.359V48.0753C117.245 48.3733 116.958 48.525 116.627 48.525Z" fill="#484848"></path><path d="M120.232 49.0182C121.132 49.0182 121.777 48.4004 121.777 47.5334C121.777 46.6664 121.132 46.054 120.232 46.054C119.344 46.054 118.693 46.6664 118.693 47.5334C118.693 48.4004 119.344 49.0182 120.232 49.0182ZM120.232 48.4383C119.745 48.4383 119.376 48.0861 119.376 47.5334C119.376 46.9807 119.745 46.6284 120.232 46.6284C120.725 46.6284 121.094 46.9807 121.094 47.5334C121.094 48.0861 120.725 48.4383 120.232 48.4383Z" fill="#484848"></path><path d="M96.5037 53.3625C96.2598 53.5034 95.9943 53.5576 95.7234 53.5576C94.9214 53.5576 94.3524 52.9941 94.3524 52.2246C94.3524 51.4389 94.9214 50.8916 95.7288 50.8916C96.1352 50.8916 96.4766 51.027 96.7746 51.3251L97.219 50.8916C96.8613 50.4851 96.3303 50.2738 95.6963 50.2738C94.5095 50.2738 93.6425 51.092 93.6425 52.2246C93.6425 53.3571 94.5095 54.1754 95.6854 54.1754C96.2219 54.1754 96.7746 54.0128 97.1702 53.6931V52.1812H96.5037V53.3625Z" fill="#484848"></path><path d="M99.1397 51.195C98.6737 51.195 98.2239 51.3142 97.9151 51.5527L98.1806 52.0458C98.3973 51.8669 98.7333 51.7586 99.0584 51.7586C99.5407 51.7586 99.7792 51.9916 99.7792 52.3872V52.4305H99.0314C98.1535 52.4305 97.8284 52.8098 97.8284 53.2921C97.8284 53.7961 98.2456 54.1591 98.9067 54.1591C99.3402 54.1591 99.6545 54.0182 99.8171 53.769V54.1212H100.457V52.4251C100.457 51.5906 99.9742 51.195 99.1397 51.195ZM99.0476 53.666C98.7008 53.666 98.4949 53.5089 98.4949 53.265C98.4949 53.0537 98.6195 52.8803 99.0801 52.8803H99.7792V53.2162C99.6654 53.5143 99.3782 53.666 99.0476 53.666Z" fill="#484848"></path><path d="M101.971 51.6502V51.2275H101.326V54.1212H102.003V52.7177C102.003 52.127 102.328 51.8236 102.843 51.8236C102.892 51.8236 102.941 51.829 103 51.8398V51.195C102.518 51.195 102.166 51.3467 101.971 51.6502Z" fill="#484848"></path><path d="M104.664 51.195C104.198 51.195 103.749 51.3142 103.44 51.5527L103.705 52.0458C103.922 51.8669 104.258 51.7586 104.583 51.7586C105.065 51.7586 105.304 51.9916 105.304 52.3872V52.4305H104.556C103.678 52.4305 103.353 52.8098 103.353 53.2921C103.353 53.7961 103.77 54.1591 104.431 54.1591C104.865 54.1591 105.179 54.0182 105.342 53.769V54.1212H105.981V52.4251C105.981 51.5906 105.499 51.195 104.664 51.195ZM104.572 53.666C104.225 53.666 104.02 53.5089 104.02 53.265C104.02 53.0537 104.144 52.8803 104.605 52.8803H105.304V53.2162C105.19 53.5143 104.903 53.666 104.572 53.666Z" fill="#484848"></path><path d="M108.492 51.195C108.07 51.195 107.718 51.3359 107.495 51.6014V51.2275H106.85V54.1212H107.528V52.6581C107.528 52.0783 107.853 51.7857 108.335 51.7857C108.769 51.7857 109.023 52.0349 109.023 52.5497V54.1212H109.701V52.463C109.701 51.5906 109.186 51.195 108.492 51.195Z" fill="#484848"></path><path d="M112.11 53.4818C112.007 53.563 111.871 53.601 111.731 53.601C111.47 53.601 111.33 53.4492 111.33 53.1675V51.7911H112.104V51.2492H111.33V50.5881H110.652V51.2492H110.175V51.7911H110.652V53.1837C110.652 53.8231 111.015 54.1591 111.649 54.1591C111.893 54.1591 112.137 54.0941 112.3 53.964L112.11 53.4818Z" fill="#484848"></path><path d="M113.198 50.7507C113.453 50.7507 113.632 50.5664 113.632 50.328C113.632 50.1058 113.447 49.9378 113.198 49.9378C112.949 49.9378 112.765 50.1167 112.765 50.3442C112.765 50.5718 112.949 50.7507 113.198 50.7507ZM112.857 54.1212H113.534V51.2275H112.857V54.1212Z" fill="#484848"></path><path d="M116.58 50.1004V51.5852C116.352 51.3196 116.022 51.195 115.648 51.195C114.808 51.195 114.185 51.7748 114.185 52.6744C114.185 53.5739 114.808 54.1591 115.648 54.1591C116.043 54.1591 116.379 54.0236 116.607 53.7473V54.1212H117.257V50.1004H116.58ZM115.729 53.5793C115.241 53.5793 114.867 53.2271 114.867 52.6744C114.867 52.1216 115.241 51.7694 115.729 51.7694C116.217 51.7694 116.591 52.1216 116.591 52.6744C116.591 53.2271 116.217 53.5793 115.729 53.5793Z" fill="#484848"></path><path d="M119.249 51.195C118.783 51.195 118.333 51.3142 118.024 51.5527L118.29 52.0458C118.506 51.8669 118.842 51.7586 119.167 51.7586C119.65 51.7586 119.888 51.9916 119.888 52.3872V52.4305H119.14C118.263 52.4305 117.937 52.8098 117.937 53.2921C117.937 53.7961 118.355 54.1591 119.016 54.1591C119.449 54.1591 119.764 54.0182 119.926 53.769V54.1212H120.566V52.4251C120.566 51.5906 120.083 51.195 119.249 51.195ZM119.157 53.666C118.81 53.666 118.604 53.5089 118.604 53.265C118.604 53.0537 118.729 52.8803 119.189 52.8803H119.888V53.2162C119.774 53.5143 119.487 53.666 119.157 53.666Z" fill="#484848"></path><path d="M152.592 45.187H151.031V48.9802H151.736V47.8856H152.592C153.589 47.8856 154.207 47.3708 154.207 46.5363C154.207 45.6964 153.589 45.187 152.592 45.187ZM152.559 47.2895H151.736V45.7831H152.559C153.177 45.7831 153.497 46.0595 153.497 46.5363C153.497 47.0132 153.177 47.2895 152.559 47.2895Z" fill="#484848"></path><path d="M155.464 46.5092V46.0866H154.819V48.9802H155.496V47.5767C155.496 46.9861 155.821 46.6826 156.336 46.6826C156.385 46.6826 156.434 46.6881 156.493 46.6989V46.054C156.011 46.054 155.659 46.2058 155.464 46.5092Z" fill="#484848"></path><path d="M157.409 45.6097C157.664 45.6097 157.843 45.4255 157.843 45.187C157.843 44.9649 157.658 44.7969 157.409 44.7969C157.16 44.7969 156.976 44.9757 156.976 45.2033C156.976 45.4309 157.16 45.6097 157.409 45.6097ZM157.068 48.9802H157.745V46.0866H157.068V48.9802Z" fill="#484848"></path><path d="M160.693 46.0866L159.767 48.2324L158.867 46.0866H158.163L159.404 48.9802H160.103L161.344 46.0866H160.693Z" fill="#484848"></path><path d="M162.782 46.054C162.316 46.054 161.867 46.1733 161.558 46.4117L161.823 46.9048C162.04 46.726 162.376 46.6176 162.701 46.6176C163.183 46.6176 163.422 46.8506 163.422 47.2462V47.2895H162.674C161.796 47.2895 161.471 47.6689 161.471 48.1511C161.471 48.6551 161.888 49.0182 162.549 49.0182C162.983 49.0182 163.297 48.8773 163.46 48.628V48.9802H164.099V47.2841C164.099 46.4496 163.617 46.054 162.782 46.054ZM162.69 48.525C162.343 48.525 162.138 48.3679 162.138 48.124C162.138 47.9127 162.262 47.7393 162.723 47.7393H163.422V48.0753C163.308 48.3733 163.021 48.525 162.69 48.525Z" fill="#484848"></path><path d="M166.323 49.0182C166.886 49.0182 167.336 48.7743 167.558 48.3408L167.038 48.0373C166.864 48.3137 166.604 48.4383 166.317 48.4383C165.819 48.4383 165.439 48.097 165.439 47.5334C165.439 46.9753 165.819 46.6284 166.317 46.6284C166.604 46.6284 166.864 46.7531 167.038 47.0294L167.558 46.726C167.336 46.2871 166.886 46.054 166.323 46.054C165.407 46.054 164.756 46.6664 164.756 47.5334C164.756 48.4004 165.407 49.0182 166.323 49.0182Z" fill="#484848"></path><path d="M168.485 45.6097C168.74 45.6097 168.918 45.4255 168.918 45.187C168.918 44.9649 168.734 44.7969 168.485 44.7969C168.236 44.7969 168.051 44.9757 168.051 45.2033C168.051 45.4309 168.236 45.6097 168.485 45.6097ZM168.144 48.9802H168.821V46.0866H168.144V48.9802Z" fill="#484848"></path><path d="M171.867 44.9594V46.4442C171.639 46.1787 171.308 46.054 170.935 46.054C170.095 46.054 169.472 46.6339 169.472 47.5334C169.472 48.4329 170.095 49.0182 170.935 49.0182C171.33 49.0182 171.666 48.8827 171.894 48.6063V48.9802H172.544V44.9594H171.867ZM171.016 48.4383C170.528 48.4383 170.154 48.0861 170.154 47.5334C170.154 46.9807 170.528 46.6284 171.016 46.6284C171.504 46.6284 171.877 46.9807 171.877 47.5334C171.877 48.0861 171.504 48.4383 171.016 48.4383Z" fill="#484848"></path><path d="M174.536 46.054C174.07 46.054 173.62 46.1733 173.311 46.4117L173.576 46.9048C173.793 46.726 174.129 46.6176 174.454 46.6176C174.937 46.6176 175.175 46.8506 175.175 47.2462V47.2895H174.427C173.549 47.2895 173.224 47.6689 173.224 48.1511C173.224 48.6551 173.641 49.0182 174.303 49.0182C174.736 49.0182 175.05 48.8773 175.213 48.628V48.9802H175.852V47.2841C175.852 46.4496 175.37 46.054 174.536 46.054ZM174.443 48.525C174.097 48.525 173.891 48.3679 173.891 48.124C173.891 47.9127 174.015 47.7393 174.476 47.7393H175.175V48.0753C175.061 48.3733 174.774 48.525 174.443 48.525Z" fill="#484848"></path><path d="M178.905 44.9594V46.4442C178.677 46.1787 178.347 46.054 177.973 46.054C177.133 46.054 176.51 46.6339 176.51 47.5334C176.51 48.4329 177.133 49.0182 177.973 49.0182C178.368 49.0182 178.704 48.8827 178.932 48.6063V48.9802H179.582V44.9594H178.905ZM178.054 48.4383C177.566 48.4383 177.192 48.0861 177.192 47.5334C177.192 46.9807 177.566 46.6284 178.054 46.6284C178.542 46.6284 178.916 46.9807 178.916 47.5334C178.916 48.0861 178.542 48.4383 178.054 48.4383Z" fill="#484848"></path><path d="M183.189 47.5497C183.189 46.6447 182.571 46.054 181.725 46.054C180.864 46.054 180.23 46.6718 180.23 47.5334C180.23 48.395 180.858 49.0182 181.828 49.0182C182.327 49.0182 182.733 48.8556 182.993 48.5467L182.63 48.1295C182.424 48.3408 182.17 48.4438 181.845 48.4438C181.341 48.4438 180.988 48.1728 180.907 47.7501H183.178C183.183 47.6851 183.189 47.6038 183.189 47.5497ZM181.725 46.5959C182.17 46.5959 182.489 46.8831 182.544 47.3004H180.902C180.967 46.8777 181.286 46.5959 181.725 46.5959Z" fill="#484848"></path><path d="M152.592 50.328H151.031V54.1212H151.736V53.0266H152.592C153.589 53.0266 154.207 52.5118 154.207 51.6773C154.207 50.8374 153.589 50.328 152.592 50.328ZM152.559 52.4305H151.736V50.9241H152.559C153.177 50.9241 153.497 51.2004 153.497 51.6773C153.497 52.1541 153.177 52.4305 152.559 52.4305Z" fill="#484848"></path><path d="M155.464 51.6502V51.2275H154.819V54.1212H155.496V52.7177C155.496 52.127 155.821 51.8236 156.336 51.8236C156.385 51.8236 156.434 51.829 156.493 51.8398V51.195C156.011 51.195 155.659 51.3467 155.464 51.6502Z" fill="#484848"></path><path d="M158.342 54.1591C159.241 54.1591 159.886 53.5414 159.886 52.6744C159.886 51.8073 159.241 51.195 158.342 51.195C157.453 51.195 156.803 51.8073 156.803 52.6744C156.803 53.5414 157.453 54.1591 158.342 54.1591ZM158.342 53.5793C157.854 53.5793 157.486 53.2271 157.486 52.6744C157.486 52.1216 157.854 51.7694 158.342 51.7694C158.835 51.7694 159.203 52.1216 159.203 52.6744C159.203 53.2271 158.835 53.5793 158.342 53.5793Z" fill="#484848"></path><path d="M162.084 53.4818C161.981 53.563 161.845 53.601 161.704 53.601C161.444 53.601 161.303 53.4492 161.303 53.1675V51.7911H162.078V51.2492H161.303V50.5881H160.626V51.2492H160.149V51.7911H160.626V53.1837C160.626 53.8231 160.989 54.1591 161.623 54.1591C161.867 54.1591 162.111 54.0941 162.273 53.964L162.084 53.4818Z" fill="#484848"></path><path d="M165.456 52.6906C165.456 51.7857 164.838 51.195 163.992 51.195C163.131 51.195 162.497 51.8128 162.497 52.6744C162.497 53.5359 163.125 54.1591 164.095 54.1591C164.594 54.1591 165 53.9966 165.26 53.6877L164.897 53.2704C164.691 53.4818 164.437 53.5847 164.112 53.5847C163.608 53.5847 163.255 53.3138 163.174 52.8911H165.445C165.45 52.8261 165.456 52.7448 165.456 52.6906ZM163.992 51.7369C164.437 51.7369 164.757 52.0241 164.811 52.4413H163.169C163.234 52.0187 163.554 51.7369 163.992 51.7369Z" fill="#484848"></path><path d="M168.333 51.2275V51.6123C168.095 51.3251 167.737 51.195 167.331 51.195C166.502 51.195 165.868 51.7477 165.868 52.5876C165.868 53.4276 166.502 53.9911 167.331 53.9911C167.721 53.9911 168.062 53.8665 168.301 53.6064V53.7581C168.301 54.3434 168.019 54.636 167.38 54.636C166.979 54.636 166.567 54.5005 166.312 54.2892L166.009 54.7985C166.339 55.0695 166.876 55.2104 167.418 55.2104C168.431 55.2104 168.978 54.7335 168.978 53.6823V51.2275H168.333ZM167.434 53.4167C166.919 53.4167 166.551 53.0808 166.551 52.5876C166.551 52.1 166.919 51.7694 167.434 51.7694C167.943 51.7694 168.312 52.1 168.312 52.5876C168.312 53.0808 167.943 53.4167 167.434 53.4167Z" fill="#484848"></path><path d="M170.21 50.7507C170.465 50.7507 170.644 50.5664 170.644 50.328C170.644 50.1058 170.459 49.9378 170.21 49.9378C169.961 49.9378 169.777 50.1167 169.777 50.3442C169.777 50.5718 169.961 50.7507 170.21 50.7507ZM169.869 54.1212H170.546V51.2275H169.869V54.1212Z" fill="#484848"></path><path d="M173.592 50.1004V51.5852C173.364 51.3196 173.034 51.195 172.66 51.195C171.82 51.195 171.197 51.7748 171.197 52.6744C171.197 53.5739 171.82 54.1591 172.66 54.1591C173.055 54.1591 173.391 54.0236 173.619 53.7473V54.1212H174.269V50.1004H173.592ZM172.741 53.5793C172.253 53.5793 171.879 53.2271 171.879 52.6744C171.879 52.1216 172.253 51.7694 172.741 51.7694C173.229 51.7694 173.603 52.1216 173.603 52.6744C173.603 53.2271 173.229 53.5793 172.741 53.5793Z" fill="#484848"></path><path d="M176.261 51.195C175.795 51.195 175.345 51.3142 175.036 51.5526L175.302 52.0458C175.518 51.8669 175.854 51.7586 176.179 51.7586C176.662 51.7586 176.9 51.9916 176.9 52.3872V52.4305H176.152C175.274 52.4305 174.949 52.8098 174.949 53.2921C174.949 53.7961 175.367 54.1591 176.028 54.1591C176.461 54.1591 176.775 54.0182 176.938 53.769V54.1212H177.577V52.4251C177.577 51.5906 177.095 51.195 176.261 51.195ZM176.169 53.666C175.822 53.666 175.616 53.5089 175.616 53.265C175.616 53.0537 175.74 52.8803 176.201 52.8803H176.9V53.2162C176.786 53.5143 176.499 53.666 176.169 53.666Z" fill="#484848"></path><path d="M27.8142 42.6953L22 44.6334V50.4476C22 53.659 24.6028 56.2617 27.8142 56.2617C31.0256 56.2617 33.6284 53.659 33.6284 50.4476V44.6334L27.8142 42.6953ZM32.5382 50.4476C32.5382 53.0564 30.423 55.1716 27.8142 55.1716C25.2054 55.1716 23.0902 53.0564 23.0902 50.4476V45.451L27.8142 43.7855L32.5382 45.451V50.4476Z" fill="#484848"></path><path d="M25.7902 48.919C25.7397 48.8683 25.6796 48.828 25.6135 48.8005C25.5474 48.773 25.4765 48.7589 25.4048 48.7589C25.3332 48.7589 25.2623 48.773 25.1962 48.8005C25.1301 48.828 25.07 48.8683 25.0195 48.919C24.9688 48.9695 24.9285 49.0296 24.901 49.0957C24.8735 49.1618 24.8594 49.2327 24.8594 49.3044C24.8594 49.376 24.8735 49.4469 24.901 49.513C24.9285 49.5791 24.9688 49.6392 25.0195 49.6897L26.9788 51.649L27.0106 51.6807C27.0583 51.7286 27.1151 51.7666 27.1776 51.7925C27.2401 51.8184 27.3071 51.8318 27.3747 51.8318C27.4423 51.8318 27.5093 51.8184 27.5718 51.7925C27.6343 51.7666 27.6911 51.7286 27.7388 51.6807L31.1229 48.2967C31.1708 48.2489 31.2087 48.1922 31.2347 48.1297C31.2606 48.0672 31.2739 48.0002 31.2739 47.9326C31.2739 47.8649 31.2606 47.7979 31.2347 47.7355C31.2087 47.673 31.1708 47.6162 31.1229 47.5684L31.0805 47.526C31.0327 47.4782 30.9759 47.4402 30.9135 47.4143C30.851 47.3883 30.784 47.375 30.7163 47.375C30.6487 47.375 30.5817 47.3883 30.5192 47.4143C30.4567 47.4402 30.4 47.4782 30.3522 47.526L27.3739 50.5028L25.7902 48.919Z" fill="#484848"></path><path fill-rule="evenodd" clip-rule="evenodd" d="M77.3072 48.6605C76.542 48.5507 75.842 48.1686 75.3358 47.5844C74.8295 47.0002 74.5508 46.2531 74.5508 45.48V45.0516C74.5508 44.2239 75.2225 43.5521 76.0502 43.5521H77.2121C77.4074 43.0509 77.8941 42.6953 78.4648 42.6953H84.346C84.6168 42.6955 84.8812 42.7773 85.1047 42.9302C85.3282 43.0831 85.5004 43.2998 85.5987 43.5521H86.7606C87.5883 43.5521 88.26 44.2239 88.26 45.0516V45.48C88.26 46.2531 87.9813 47.0002 87.475 47.5844C86.9687 48.1686 86.2688 48.5507 85.5036 48.6605C85.3227 49.25 85.017 49.7936 84.6073 50.2545C84.1976 50.7153 83.6936 51.0826 83.1293 51.3313L83.2527 52.5702C83.257 52.6131 83.2784 52.6731 83.3504 52.745C83.4241 52.8196 83.5363 52.8907 83.67 52.9395C83.9125 53.0278 84.1995 53.1743 84.4326 53.4262C84.6768 53.6918 84.8327 54.0457 84.8327 54.4767V55.1193H85.9037C86.0742 55.1193 86.2376 55.187 86.3581 55.3075C86.4786 55.428 86.5464 55.5915 86.5464 55.7619C86.5464 55.9323 86.4786 56.0958 86.3581 56.2163C86.2376 56.3368 86.0742 56.4045 85.9037 56.4045H76.9071C76.7366 56.4045 76.5732 56.3368 76.4527 56.2163C76.3321 56.0958 76.2644 55.9323 76.2644 55.7619C76.2644 55.5915 76.3321 55.428 76.4527 55.3075C76.5732 55.187 76.7366 55.1193 76.9071 55.1193H77.9781V54.4767C77.9781 54.0457 78.134 53.6918 78.3791 53.4262C78.6104 53.1743 78.8983 53.0278 79.1408 52.9395C79.26 52.8983 79.369 52.832 79.4604 52.745C79.5324 52.6722 79.5538 52.6139 79.5581 52.5702L79.6815 51.3313C79.1174 51.0825 78.6135 50.7152 78.2039 50.2543C77.7944 49.7935 77.4889 49.2499 77.308 48.6605H77.3072ZM77.1213 44.8374H76.0502C75.9934 44.8374 75.9389 44.8599 75.8988 44.9001C75.8586 44.9403 75.836 44.9948 75.836 45.0516V45.48C75.836 46.3197 76.3724 47.0334 77.1213 47.2982V44.8374ZM80.9401 51.6663L80.8373 52.6979C80.7576 53.4905 80.1022 53.9574 79.5804 54.1468C79.4842 54.1766 79.3963 54.2282 79.3233 54.2976C79.2916 54.3319 79.2633 54.3773 79.2633 54.4775V55.1202H83.5475V54.4775C83.5475 54.3773 83.5192 54.3319 83.4875 54.2976C83.4146 54.2282 83.3266 54.1766 83.2304 54.1468C82.7086 53.9574 82.0532 53.4905 81.9743 52.6988L81.8715 51.6671C81.562 51.7006 81.2497 51.7006 80.9401 51.6671V51.6663ZM85.6895 47.299V44.8374H86.7606C86.8174 44.8374 86.8719 44.8599 86.912 44.9001C86.9522 44.9403 86.9748 44.9948 86.9748 45.0516V45.48C86.9749 45.8788 86.8513 46.2678 86.6212 46.5934C86.391 46.919 86.0655 47.1653 85.6895 47.2982V47.299ZM78.4065 44.0388C78.4065 44.0071 78.4322 43.9806 78.4648 43.9806H84.346C84.3777 43.9806 84.4043 44.0063 84.4043 44.0388V47.4079C84.4043 48.2032 84.0883 48.966 83.5259 49.5284C82.9635 50.0908 82.2007 50.4068 81.4054 50.4068C80.61 50.4068 79.8473 50.0908 79.2849 49.5284C78.7225 48.966 78.4065 48.2032 78.4065 47.4079V44.0388V44.0388Z" fill="#484848"></path><path d="M81.404 44.7539L81.8657 46.1748L83.3598 46.1748L82.1511 47.053L82.6128 48.4739L81.404 47.5958L80.1953 48.4739L80.657 47.053L79.4483 46.1748L80.9424 46.1748L81.404 44.7539Z" fill="#484848"></path></g><defs><clipPath id="clip0_1891_416"><rect width="38.781" height="22.0888" fill="white" transform="translate(7.88281 7.89062)"></rect></clipPath></defs></svg>